<svg aria-hidden="true" style="position: absolute; width: 0; height: 0; overflow: hidden;" version="1.1" xmlns="http://www.w3.org/2000/svg" xmlns:xlink="http://www.w3.org/1999/xlink">
<defs>
<symbol id="icon-compass" viewBox="0 0 32 32">
<title>compass</title>
<path d="M16.542 4.895v-0.633c0.933-0.242 1.627-1.084 1.627-2.092 0-1.196-0.973-2.17-2.169-2.17s-2.169 0.973-2.169 2.17c0 1.008 0.694 1.85 1.627 2.092v0.633c-7.226 0.286-13.017 6.251-13.017 13.546 0 7.477 6.083 13.559 13.559 13.559s13.559-6.083 13.559-13.559c0-7.295-5.791-13.259-13.017-13.546zM14.915 2.17c0-0.598 0.486-1.085 1.085-1.085s1.085 0.486 1.085 1.085-0.486 1.085-1.085 1.085-1.085-0.486-1.085-1.085zM16 30.915c-6.879 0-12.475-5.596-12.475-12.475s5.596-12.475 12.475-12.475 12.475 5.596 12.475 12.475-5.596 12.475-12.475 12.475z"></path>
<path d="M22.66 11.052l-9.204 4.602c-0.014 0.007-0.022 0.022-0.036 0.030-0.037 0.022-0.065 0.050-0.096 0.081-0.030 0.028-0.057 0.060-0.080 0.094l-0.001 0.002c-0.008 0.014-0.023 0.022-0.030 0.036l-4.602 9.204c-0.036 0.071-0.057 0.154-0.057 0.243 0 0.3 0.243 0.542 0.542 0.542 0.089 0 0.172-0.021 0.246-0.059l-0.003 0.001 9.204-4.602c0.014-0.007 0.022-0.022 0.036-0.030 0.037-0.022 0.065-0.050 0.096-0.081 0.030-0.028 0.057-0.060 0.080-0.094l0.001-0.002c0.008-0.014 0.023-0.022 0.030-0.036l4.602-9.204c0.036-0.071 0.057-0.154 0.057-0.243 0-0.3-0.243-0.542-0.542-0.542-0.089 0-0.172 0.021-0.246 0.059l0.003-0.001zM10.31 24.131l3.538-7.075 3.537 3.537-7.075 3.538zM18.152 19.826l-3.537-3.537 7.075-3.538-3.538 7.075z"></path>
</symbol>
<symbol id="icon-e-mail-envelope" viewBox="0 0 32 32">
<title>e-mail-envelope</title>
<path d="M0 5.394v21.212h32v-21.212h-32zM16 18.493l-13.125-11.526h26.25l-13.125 11.526zM10.772 15.996l-9.198 8.078v-16.155l9.198 8.078zM11.964 17.043l4.036 3.544 4.036-3.544 9.098 7.989h-26.266l9.097-7.989zM21.228 15.997l9.199-8.078v16.155l-9.199-8.077z"></path>
</symbol>
<symbol id="icon-fast-forward" viewBox="0 0 32 32">
<title>fast-forward</title>
<path d="M31.761 15.541l-15.158-10.667c-0-0.31-0.251-0.56-0.561-0.56s-0.561 0.251-0.561 0.561c0 0.189 0.093 0.355 0.236 0.457l0.002 0.001v9.98l-14.835-10.433c-0.090-0.064-0.202-0.102-0.322-0.102-0.31 0-0.562 0.251-0.562 0.561v21.319c0.001 0.31 0.252 0.561 0.561 0.561h0c0.113 0 0.226-0.035 0.323-0.102l14.835-10.432v9.98c0 0.31 0.251 0.561 0.561 0.561h0c0.121-0 0.233-0.039 0.325-0.104l-0.002 0.001 15.158-10.667c0.145-0.102 0.239-0.27 0.239-0.459s-0.094-0.356-0.238-0.457l-0.002-0.001zM1.123 25.579v-19.157l13.621 9.578-13.621 9.579zM16.842 25.585v-19.17l13.621 9.585-13.621 9.585z"></path>
</symbol>
<symbol id="icon-heart" viewBox="0 0 32 32">
<title>heart</title>
<path d="M23.667 1.333c-3.549 0-6.481 3.297-7.667 4.853-1.186-1.556-4.117-4.853-7.667-4.853-4.595 0-8.333 4.225-8.333 9.417 0 2.833 1.124 5.473 3.092 7.279 0.030 0.052 0.065 0.096 0.105 0.136l0 0 12.332 12.307c0.13 0.13 0.3 0.195 0.471 0.195s0.341-0.065 0.471-0.195l12.874-12.865c0.104-0.098 0.207-0.198 0.322-0.326 0.046-0.046 0.086-0.098 0.117-0.155l0.002-0.003c1.429-1.75 2.214-4.007 2.214-6.372 0-5.192-3.738-9.417-8.333-9.417zM28.676 16.372c-0.017 0.020-0.034 0.042-0.049 0.065l-0.001 0.002c-0.063 0.072-0.131 0.135-0.199 0.199l-12.428 12.419-11.708-11.684c-0.040-0.078-0.092-0.143-0.154-0.198l-0.001-0.001c-1.782-1.556-2.803-3.898-2.803-6.425 0-4.457 3.14-8.083 7-8.083 3.816 0 7.074 4.978 7.106 5.028 0.246 0.38 0.875 0.38 1.121 0 0.033-0.050 3.29-5.028 7.106-5.028 3.86 0 7 3.626 7 8.083 0 2.1-0.707 4.097-1.99 5.622z"></path>
</symbol>
<symbol id="icon-internet" viewBox="0 0 32 32">
<title>internet</title>
<path d="M27.966 26.605c2.507-2.825 4.034-6.54 4.034-10.605 0-4.23-1.653-8.079-4.343-10.943v-0.001c-0.002-0.003-0.006-0.004-0.007-0.007-2.802-2.979-6.728-4.886-11.095-5.035l-0.001-0.001-0.312-0.008c-0.081-0.003-0.161-0.006-0.242-0.006s-0.162 0.003-0.242 0.006l-0.311 0.008-0.001 0.001c-4.367 0.15-8.293 2.056-11.095 5.035-0.002 0.003-0.006 0.004-0.007 0.007l-0.001 0.001c-2.691 2.863-4.344 6.712-4.344 10.942 0 4.066 1.527 7.78 4.034 10.605 0.003 0.005 0.003 0.010 0.007 0.015 0.010 0.014 0.024 0.020 0.035 0.033 2.817 3.149 6.859 5.178 11.37 5.332l0.001 0.001 0.311 0.008c0.081 0.002 0.162 0.005 0.243 0.005s0.162-0.003 0.242-0.006l0.311-0.008 0.001-0.001c4.516-0.155 8.562-2.188 11.379-5.343 0.007-0.009 0.019-0.012 0.025-0.022 0.004-0.004 0.004-0.010 0.008-0.015zM1.117 16.552h6.622c0.065 2.439 0.548 4.746 1.38 6.879l-0.048-0.139c-1.709 0.627-3.186 1.395-4.545 2.324l0.070-0.045c-2.057-2.429-3.351-5.562-3.479-8.993l-0.001-0.027zM4.898 6.082c1.254 0.828 2.693 1.551 4.217 2.098l0.142 0.044c-0.899 2.131-1.45 4.605-1.517 7.199l-0.001 0.026h-6.622c0.135-3.618 1.546-6.883 3.793-9.38l-0.012 0.013zM30.883 15.448h-6.622c-0.067-2.62-0.618-5.094-1.567-7.359l0.050 0.134c1.665-0.59 3.105-1.314 4.435-2.189l-0.076 0.047c2.235 2.484 3.646 5.749 3.78 9.34l0.001 0.027zM15.448 8.255c-1.682-0.048-3.285-0.303-4.81-0.741l0.136 0.034c1.184-2.39 2.754-4.412 4.651-6.069l0.023-0.019v6.797zM15.448 9.359v6.089h-6.605c0.069-2.499 0.603-4.854 1.518-7.009l-0.048 0.126c1.527 0.458 3.287 0.745 5.107 0.793l0.027 0.001zM16.552 9.359c1.754-0.047 3.476-0.312 5.135-0.793 0.868 2.029 1.402 4.384 1.47 6.856l0.001 0.027h-6.606v-6.089zM16.552 8.255v-6.797c1.92 1.677 3.49 3.699 4.623 5.977l0.050 0.112c-1.389 0.405-2.992 0.66-4.646 0.707l-0.027 0.001zM22.295 7.212c-1.127-2.322-2.587-4.301-4.343-5.97l-0.009-0.008c3.283 0.443 6.164 1.901 8.381 4.042l-0.004-0.004c-1.157 0.747-2.486 1.402-3.891 1.899l-0.134 0.041zM9.705 7.212c-1.539-0.538-2.868-1.193-4.1-1.986l0.076 0.046c2.212-2.137 5.094-3.595 8.3-4.029l0.077-0.008c-1.766 1.677-3.225 3.656-4.299 5.857l-0.053 0.121zM8.843 16.552h6.605v5.538c-1.918 0.050-3.745 0.357-5.474 0.888l0.144-0.038c-0.748-1.889-1.21-4.076-1.274-6.362l-0.001-0.027zM15.448 23.193v7.348c-2.052-1.792-3.706-3.982-4.852-6.456l-0.050-0.119c1.457-0.445 3.137-0.724 4.875-0.772l0.027-0.001zM16.552 30.541v-7.348c1.677 0.047 3.32 0.307 4.902 0.772-1.195 2.593-2.85 4.784-4.879 6.556l-0.023 0.019zM16.552 22.090v-5.538h6.605c-0.065 2.313-0.527 4.5-1.321 6.52l0.045-0.131c-1.585-0.494-3.412-0.801-5.303-0.85l-0.026-0.001zM24.26 16.552h6.622c-0.129 3.458-1.422 6.591-3.498 9.041l0.018-0.022c-1.289-0.884-2.766-1.653-4.334-2.233l-0.141-0.046c0.785-1.994 1.268-4.302 1.332-6.713l0.001-0.027zM5.347 26.398c1.194-0.806 2.563-1.509 4.014-2.043l0.133-0.043c1.14 2.517 2.677 4.659 4.555 6.446l0.008 0.008c-3.394-0.444-6.431-2.033-8.711-4.368zM17.943 30.766c1.886-1.795 3.423-3.937 4.511-6.327l0.052-0.127c1.584 0.577 2.953 1.28 4.216 2.13l-0.069-0.044c-2.28 2.335-5.317 3.924-8.711 4.368z"></path>
</symbol>
<symbol id="icon-phone-call" viewBox="0 0 32 32">
<title>phone-call</title>
<path d="M31.978 26.338c-0.102-0.769-0.546-1.432-1.218-1.819l-7.895-4.545c-0.967-0.557-2.194-0.395-2.983 0.395l-1.555 1.555c-0.414 0.414-1.068 0.45-1.522 0.085-1.226-0.986-2.433-2.072-3.587-3.227s-2.24-2.361-3.227-3.587c-0.365-0.454-0.329-1.109 0.085-1.522l1.555-1.555c0.789-0.789 0.951-2.016 0.395-2.983l-4.545-7.895c-0.387-0.672-1.050-1.116-1.819-1.218s-1.525 0.155-2.073 0.703l-2.343 2.343c-1.635 1.635-1.662 4.627-0.074 8.423 1.527 3.65 4.375 7.669 8.022 11.315s7.665 6.495 11.315 8.022c1.869 0.781 3.542 1.172 4.955 1.172 1.457 0 2.638-0.416 3.468-1.246l2.343-2.343c0.548-0.548 0.805-1.304 0.703-2.073zM22.349 20.872l7.895 4.545c0.39 0.225 0.648 0.61 0.707 1.056 0.050 0.375-0.048 0.744-0.268 1.041l-10.492-5.988 0.426-0.426c0.458-0.458 1.171-0.552 1.732-0.229zM5.526 1.050c0.447 0.059 0.832 0.317 1.056 0.707l4.545 7.895c0.323 0.562 0.229 1.274-0.229 1.732l-0.391 0.391-6.021-10.457c0.246-0.182 0.54-0.281 0.847-0.281 0.064 0 0.128 0.004 0.192 0.013zM28.199 30.021c-1.299 1.299-3.956 1.245-7.29-0.149-3.529-1.476-7.429-4.245-10.982-7.798s-6.323-7.453-7.798-10.982c-1.394-3.334-1.449-5.991-0.149-7.29l1.739-1.739 6.030 10.473-0.404 0.404c-0.789 0.789-0.858 2.038-0.16 2.906 1.010 1.255 2.12 2.49 3.301 3.67s2.416 2.291 3.671 3.301c0.867 0.698 2.116 0.629 2.906-0.16l0.369-0.369 10.506 5.996-1.738 1.738z"></path>
</symbol>
<symbol id="icon-settings" viewBox="0 0 32 32">
<title>settings</title>
<path d="M30.362 12.641l-2.246-0.381c-0.234-0.755-0.535-1.484-0.902-2.179l1.324-1.852c0.562-0.789 0.475-1.865-0.214-2.547l-1.992-1.992c-0.374-0.374-0.869-0.582-1.397-0.582-0.414 0-0.809 0.127-1.143 0.368l-1.858 1.324c-0.722-0.381-1.477-0.695-2.259-0.929l-0.374-2.219c-0.16-0.956-0.983-1.651-1.952-1.651h-2.814c-0.969 0-1.791 0.695-1.952 1.651l-0.388 2.273c-0.749 0.234-1.477 0.541-2.173 0.916l-1.838-1.324c-0.334-0.241-0.735-0.368-1.15-0.368-0.528 0-1.029 0.207-1.397 0.582l-1.999 1.992c-0.682 0.682-0.775 1.758-0.214 2.547l1.337 1.878c-0.368 0.702-0.662 1.431-0.889 2.186l-2.219 0.374c-0.956 0.16-1.651 0.983-1.651 1.952v2.814c0 0.969 0.695 1.791 1.651 1.952l2.273 0.388c0.234 0.749 0.541 1.477 0.916 2.173l-1.317 1.832c-0.562 0.789-0.475 1.865 0.214 2.547l1.992 1.992c0.374 0.374 0.869 0.582 1.397 0.582 0.414 0 0.809-0.127 1.143-0.368l1.878-1.337c0.675 0.354 1.384 0.642 2.112 0.869l0.374 2.246c0.16 0.956 0.983 1.651 1.952 1.651h2.821c0.969 0 1.791-0.695 1.952-1.651l0.381-2.246c0.755-0.234 1.484-0.535 2.179-0.902l1.852 1.324c0.334 0.241 0.735 0.368 1.15 0.368v0c0.528 0 1.023-0.207 1.397-0.582l1.992-1.992c0.682-0.682 0.775-1.758 0.214-2.547l-1.324-1.858c0.368-0.702 0.675-1.431 0.902-2.179l2.246-0.374c0.956-0.16 1.651-0.983 1.651-1.952v-2.814c0.013-0.969-0.682-1.791-1.638-1.952zM30.208 17.407c0 0.087-0.060 0.16-0.147 0.174l-2.808 0.468c-0.354 0.060-0.635 0.321-0.722 0.662-0.254 0.983-0.642 1.925-1.163 2.801-0.18 0.308-0.167 0.689 0.040 0.983l1.651 2.326c0.047 0.067 0.040 0.167-0.020 0.227l-1.992 1.992c-0.047 0.047-0.094 0.053-0.127 0.053-0.040 0-0.074-0.013-0.1-0.033l-2.32-1.651c-0.287-0.207-0.675-0.221-0.983-0.040-0.876 0.521-1.818 0.909-2.801 1.163-0.348 0.087-0.608 0.374-0.662 0.722l-0.475 2.808c-0.013 0.087-0.087 0.147-0.174 0.147h-2.814c-0.087 0-0.16-0.060-0.174-0.147l-0.468-2.808c-0.060-0.354-0.321-0.635-0.662-0.722-0.956-0.247-1.878-0.628-2.741-1.123-0.14-0.080-0.301-0.12-0.455-0.12-0.181 0-0.368 0.053-0.521 0.167l-2.34 1.665c-0.033 0.020-0.067 0.033-0.1 0.033-0.027 0-0.080-0.007-0.127-0.053l-1.992-1.992c-0.060-0.060-0.067-0.154-0.020-0.227l1.644-2.306c0.207-0.294 0.221-0.682 0.040-0.989-0.521-0.869-0.923-1.812-1.176-2.794-0.094-0.341-0.374-0.602-0.722-0.662l-2.828-0.481c-0.087-0.013-0.147-0.087-0.147-0.174v-2.814c0-0.087 0.060-0.16 0.147-0.174l2.788-0.468c0.354-0.060 0.642-0.321 0.729-0.668 0.247-0.983 0.628-1.932 1.143-2.808 0.181-0.307 0.16-0.689-0.047-0.976l-1.665-2.34c-0.047-0.067-0.040-0.167 0.020-0.227l1.992-1.992c0.047-0.047 0.094-0.053 0.127-0.053 0.040 0 0.074 0.013 0.1 0.033l2.306 1.644c0.294 0.207 0.682 0.221 0.989 0.040 0.869-0.521 1.812-0.923 2.794-1.176 0.341-0.094 0.602-0.374 0.662-0.722l0.481-2.828c0.013-0.087 0.087-0.147 0.174-0.147h2.814c0.087 0 0.16 0.060 0.174 0.147l0.468 2.788c0.060 0.354 0.321 0.642 0.668 0.729 1.009 0.254 1.972 0.648 2.868 1.176 0.308 0.181 0.689 0.167 0.983-0.040l2.306-1.658c0.033-0.020 0.067-0.033 0.1-0.033 0.027 0 0.080 0.007 0.127 0.053l1.992 1.992c0.060 0.060 0.067 0.154 0.020 0.227l-1.651 2.32c-0.207 0.287-0.221 0.675-0.040 0.983 0.521 0.876 0.909 1.818 1.163 2.801 0.087 0.348 0.374 0.608 0.722 0.662l2.808 0.475c0.087 0.013 0.147 0.087 0.147 0.174v2.814h-0.007z"></path>
<path d="M16.003 9.091c-3.81 0-6.905 3.095-6.905 6.905s3.095 6.905 6.905 6.905 6.905-3.095 6.905-6.905-3.095-6.905-6.905-6.905zM16.003 21.097c-2.814 0-5.1-2.286-5.1-5.1s2.286-5.1 5.1-5.1 5.1 2.286 5.1 5.1-2.286 5.1-5.1 5.1z"></path>
</symbol>
<symbol id="icon-shopping-card" viewBox="0 0 32 32">
<title>shopping-cart</title>
<path d="M9.606 21.070h17.632c1.999 0 3.63-1.631 3.63-3.63v-7.497c0-0.013 0-0.026-0.007-0.039 0-0.013-0.007-0.033-0.007-0.046s-0.007-0.026-0.007-0.039c-0.007-0.013-0.007-0.026-0.013-0.046-0.007-0.013-0.007-0.026-0.013-0.039s-0.007-0.026-0.013-0.039c-0.007-0.013-0.013-0.026-0.020-0.046-0.007-0.013-0.013-0.026-0.020-0.033l-0.020-0.039c-0.007-0.013-0.013-0.020-0.020-0.033s-0.020-0.026-0.026-0.039c-0.007-0.013-0.013-0.020-0.026-0.033-0.007-0.013-0.020-0.020-0.026-0.033s-0.020-0.020-0.026-0.033-0.020-0.020-0.026-0.026l-0.033-0.033c-0.013-0.007-0.020-0.020-0.033-0.026s-0.026-0.020-0.039-0.026c-0.013-0.007-0.020-0.013-0.033-0.020s-0.026-0.013-0.039-0.026l-0.118-0.059c-0.013-0.007-0.026-0.007-0.039-0.013s-0.033-0.013-0.046-0.013-0.026-0.007-0.033-0.007c-0.020-0.007-0.033-0.007-0.053-0.007-0.007 0-0.013-0.007-0.026-0.007l-22.348-3.084v-3.117c0-0.033 0-0.066-0.007-0.092 0-0.007 0-0.013-0.007-0.026 0-0.020-0.007-0.039-0.007-0.059-0.007-0.020-0.007-0.033-0.013-0.053 0-0.013-0.007-0.020-0.007-0.033l-0.020-0.059c0-0.007-0.007-0.020-0.007-0.026-0.007-0.020-0.013-0.033-0.026-0.053-0.007-0.007-0.007-0.020-0.013-0.026-0.007-0.013-0.013-0.026-0.026-0.039-0.007-0.013-0.013-0.020-0.020-0.033s-0.013-0.020-0.020-0.033-0.020-0.026-0.026-0.039l-0.079-0.079c-0.013-0.013-0.026-0.026-0.046-0.039-0.007-0.007-0.020-0.013-0.026-0.020-0.013-0.013-0.026-0.020-0.039-0.033-0.020-0.013-0.039-0.026-0.053-0.033-0.007-0.007-0.013-0.007-0.020-0.013-0.026-0.013-0.059-0.026-0.085-0.039l-4.847-2.039c-0.454-0.191-0.973 0.020-1.164 0.474s0.020 0.973 0.474 1.164l4.301 1.815v19.454c0 1.841 1.381 3.367 3.163 3.597-0.322 0.539-0.513 1.171-0.513 1.841 0 1.98 1.611 3.584 3.584 3.584s3.584-1.611 3.584-3.584c0-0.658-0.178-1.282-0.493-1.809h7.984c-0.316 0.533-0.493 1.151-0.493 1.809 0 1.98 1.611 3.584 3.584 3.584s3.584-1.611 3.584-3.584-1.611-3.584-3.584-3.584h-16.77c-1.026 0-1.855-0.835-1.855-1.855v-2.407c0.539 0.316 1.177 0.5 1.855 0.5zM14.026 28.409c0 1-0.816 1.809-1.809 1.809s-1.809-0.816-1.809-1.809 0.816-1.809 1.809-1.809 1.809 0.809 1.809 1.809zM28.192 28.409c0 1-0.816 1.809-1.809 1.809s-1.809-0.816-1.809-1.809 0.816-1.809 1.809-1.809 1.809 0.809 1.809 1.809zM27.238 19.294h-17.632c-1.026 0-1.855-0.835-1.855-1.855v-9.595l21.341 2.94v6.649c0 1.033-0.835 1.861-1.855 1.861z"></path>
</symbol>
<symbol id="icon-shuffle" viewBox="0 0 32 32">
<title>shuffle</title>
<path d="M12.699 21.178l0.979-1.58c0.235-0.379 0.118-0.868-0.261-1.103-0.372-0.235-0.868-0.118-1.103 0.261l-0.979 1.58c-1.776 2.866-4.309 4.512-6.96 4.512h-3.578c-0.444 0-0.797 0.359-0.797 0.803s0.359 0.803 0.797 0.803h3.585c3.219-0.013 6.249-1.933 8.318-5.276zM31.758 5.795l-3.878-3.885c-0.313-0.313-0.816-0.313-1.13 0s-0.313 0.816 0 1.13l2.52 2.52h-3.715c-3.212 0-6.249 1.92-8.318 5.263l-0.601 0.973c-0.235 0.379-0.118 0.868 0.261 1.103 0.131 0.078 0.274 0.118 0.418 0.118 0.268 0 0.529-0.137 0.679-0.379l0.601-0.973c1.776-2.866 4.309-4.505 6.96-4.505h3.709l-2.52 2.52c-0.313 0.313-0.313 0.816 0 1.13 0.157 0.157 0.359 0.235 0.568 0.235s0.411-0.078 0.568-0.235l3.885-3.885c0.307-0.313 0.307-0.823-0.007-1.13zM30.054 6.369v-0.026l0.013 0.013-0.013 0.013z"></path>
<path d="M26.744 30.090c0.157 0.157 0.359 0.235 0.568 0.235s0.411-0.078 0.568-0.235l3.885-3.885c0.313-0.313 0.313-0.816 0-1.13l-3.885-3.878c-0.313-0.313-0.816-0.313-1.13 0s-0.313 0.816 0 1.13l2.52 2.52h-3.598c-2.644 0-5.184-1.645-6.96-4.512l-5.889-9.513c-2.070-3.35-5.106-5.263-8.318-5.263h-3.709c-0.444 0-0.797 0.359-0.797 0.803s0.359 0.803 0.797 0.803h3.702c2.644 0 5.184 1.645 6.96 4.505l5.889 9.513c2.070 3.35 5.106 5.269 8.318 5.269h3.598l-2.52 2.52c-0.307 0.3-0.307 0.803 0 1.116zM30.054 25.631l0.013 0.013-0.013 0.013v-0.026z"></path>
</symbol>
<symbol id="icon-strongbox" viewBox="0 0 32 32">
<title>strongbox</title>
<path d="M30.912 0h-21.982c-0.311 0-0.563 0.252-0.563 0.563s0.252 0.563 0.563 0.563v0h21.418v27.604h-27.604v-4.733h1.394v2.776c0 0.311 0.252 0.563 0.563 0.563v0h3.246c0.311 0 0.563-0.252 0.563-0.563s-0.252-0.563-0.563-0.563h-2.683v-2.212h0.486c0.311 0 0.563-0.252 0.563-0.563v0-5.671c0-0.311-0.252-0.563-0.563-0.563h-0.486v-4.544h0.486c0.311 0 0.563-0.252 0.563-0.563v0-5.671c0-0.311-0.252-0.563-0.563-0.563h-0.486v-2.212h22.563v3.044c0 0.311 0.252 0.563 0.563 0.563s0.563-0.252 0.563-0.563v0-3.607c0-0.311-0.252-0.563-0.563-0.563v0h-23.69c-0.311 0-0.563 0.252-0.563 0.563v0 2.776h-1.393v-4.733h4.222c0.311 0 0.563-0.252 0.563-0.563s-0.252-0.563-0.563-0.563v0h-4.785c-0.311 0-0.563 0.252-0.563 0.563v0 5.296h-0.529c-0.311 0-0.563 0.252-0.563 0.563v0 5.671c0 0.311 0.252 0.563 0.563 0.563v0h0.529v4.544h-0.529c-0.311 0-0.563 0.252-0.563 0.563v0 5.671c0 0.311 0.252 0.563 0.563 0.563v0h0.529v5.296c0 0.311 0.252 0.563 0.563 0.563v0h2.272v1.579c0 0.311 0.252 0.563 0.563 0.563h5.923c0.311 0 0.563-0.252 0.563-0.563v0-1.579h10.088v1.579c0 0.311 0.252 0.563 0.563 0.563v0h5.923c0.311 0 0.563-0.252 0.563-0.563v0-1.579h2.272c0.311 0 0.563-0.252 0.563-0.563v0-28.731c-0-0.311-0.252-0.563-0.564-0.563zM1.652 11.53v-4.544h3.536v4.544l-3.536-0zM4.138 12.657v4.544h-1.394v-4.544h1.394zM1.652 22.871v-4.544h3.536v4.544h-3.536zM5.579 30.873v-1.016h4.796v1.016h-4.796zM27.513 30.873h-4.796v-1.016h4.796v1.016z"></path>
<path d="M28.391 8.091c-0.311 0-0.563 0.252-0.563 0.563v0 17.556h-17.916c-0.311 0-0.563 0.252-0.563 0.563s0.252 0.563 0.563 0.563v0h18.48c0.311 0 0.563-0.252 0.563-0.563v0-18.119c-0-0.311-0.252-0.563-0.563-0.563v0z"></path>
<path d="M16.788 8.75c-3.404 0-6.174 2.77-6.174 6.174s2.77 6.174 6.174 6.174c3.404-0 6.174-2.77 6.174-6.174s-2.77-6.174-6.174-6.174zM21.802 14.36h-2.111c-0.082-0.414-0.239-0.78-0.459-1.101l0.006 0.010 1.491-1.491c0.58 0.725 0.964 1.612 1.072 2.582zM17.351 9.909c0.97 0.108 1.857 0.493 2.582 1.072l-1.491 1.491c-0.311-0.213-0.677-0.371-1.072-0.449l-0.019-0.003v-2.111zM16.225 9.909v2.111h-0c-0.414 0.082-0.78 0.239-1.101 0.459l0.010-0.007-1.491-1.491c0.725-0.58 1.612-0.964 2.582-1.072zM12.846 11.778l1.491 1.491c-0.213 0.311-0.371 0.677-0.449 1.072l-0.003 0.019h-2.111c0.108-0.97 0.493-1.857 1.072-2.582zM11.774 15.487l2.111 0c0.082 0.414 0.239 0.78 0.459 1.101l-0.007-0.010-1.491 1.491c-0.58-0.725-0.964-1.612-1.072-2.582zM16.225 19.938c-0.97-0.108-1.857-0.493-2.582-1.072l1.491-1.491c0.311 0.213 0.677 0.371 1.072 0.449l0.019 0.003v2.111zM14.957 14.924c0-1.010 0.821-1.831 1.831-1.831s1.831 0.822 1.831 1.831-0.822 1.831-1.831 1.831-1.831-0.821-1.831-1.831zM17.351 19.938v-2.111h-0c0.414-0.082 0.78-0.239 1.101-0.459l-0.010 0.006 1.491 1.491c-0.725 0.58-1.612 0.964-2.582 1.072zM20.73 18.069l-1.491-1.491c0.213-0.311 0.371-0.677 0.449-1.072l0.003-0.019h2.111c-0.108 0.97-0.493 1.857-1.072 2.582z"></path>
</symbol>
<symbol id="icon-time" viewBox="0 0 32 32">
<title>time</title>
<path d="M16 0c-8.822 0-16 7.178-16 16s7.178 16 16 16 16-7.178 16-16-7.178-16-16-16zM16 30.933c-8.234 0-14.933-6.699-14.933-14.933s6.699-14.933 14.933-14.933 14.933 6.699 14.933 14.933-6.699 14.933-14.933 14.933z"></path>
<path d="M16 3.2c-0.295 0-0.533 0.239-0.533 0.533v0 12.267h-8c-0.295 0-0.533 0.239-0.533 0.533s0.239 0.533 0.533 0.533v0h8.533c0.295 0 0.533-0.239 0.533-0.533v0-12.8c0-0.295-0.239-0.533-0.533-0.533v0z"></path>
</symbol>
</defs>
</svg>
