<svg aria-hidden="true" style="position:absolute;width:0;height:0" xmlns="http://www.w3.org/2000/svg" overflow="hidden"><defs><symbol id="icon-compass" viewBox="0 0 32 32"><path d="M16.542 4.895v-.633a2.166 2.166 0 001.627-2.092C18.169.974 17.196 0 16 0s-2.169.973-2.169 2.17c0 1.008.694 1.85 1.627 2.092v.633c-7.226.286-13.017 6.251-13.017 13.546C2.441 25.918 8.524 32 16 32s13.559-6.083 13.559-13.559c0-7.295-5.791-13.259-13.017-13.546zM14.915 2.17a1.086 1.086 0 112.172.002 1.086 1.086 0 01-2.172-.002zM16 30.915c-6.879 0-12.475-5.596-12.475-12.475S9.121 5.965 16 5.965s12.475 5.596 12.475 12.475S22.879 30.915 16 30.915z"/><path d="M22.66 11.052l-9.204 4.602c-.014.007-.022.022-.036.03-.037.022-.065.05-.096.081a.553.553 0 00-.08.094l-.001.002c-.008.014-.023.022-.03.036l-4.602 9.204a.542.542 0 00.731.726l-.003.001 9.204-4.602c.014-.007.022-.022.036-.03.037-.022.065-.05.096-.081a.553.553 0 00.08-.094l.001-.002c.008-.014.023-.022.03-.036l4.602-9.204a.542.542 0 00-.731-.726l.003-.001zM10.31 24.131l3.538-7.075 3.537 3.537-7.075 3.538zm7.842-4.305l-3.537-3.537 7.075-3.538-3.538 7.075z"/></symbol><symbol id="icon-e-mail-envelope" viewBox="0 0 32 32"><path d="M0 5.394v21.212h32V5.394H0zm16 13.099L2.875 6.967h26.25L16 18.493zm-5.228-2.497l-9.198 8.078V7.919l9.198 8.078zm1.192 1.047L16 20.587l4.036-3.544 9.098 7.989H2.868l9.097-7.989zm9.264-1.046l9.199-8.078v16.155l-9.199-8.077z"/></symbol><symbol id="icon-fast-forward" viewBox="0 0 32 32"><path d="M31.761 15.541L16.603 4.874a.56.56 0 10-1.122.001.56.56 0 00.236.457l.002.001v9.98L.884 4.88A.562.562 0 000 5.339v21.319c.001.31.252.561.561.561a.57.57 0 00.323-.102l14.835-10.432v9.98a.562.562 0 00.886.457l-.002.001 15.158-10.667a.56.56 0 00.001-.916l-.002-.001zM1.123 25.579V6.422L14.744 16 1.123 25.579zm15.719.006V6.415L30.463 16l-13.621 9.585z"/></symbol><symbol id="icon-heart" viewBox="0 0 32 32"><path d="M23.667 1.333c-3.549 0-6.481 3.297-7.667 4.853-1.186-1.556-4.117-4.853-7.667-4.853C3.738 1.333 0 5.558 0 10.75c0 2.833 1.124 5.473 3.092 7.279.03.052.065.096.105.136l12.332 12.307a.663.663 0 00.942 0l12.874-12.865a5.27 5.27 0 00.322-.326.68.68 0 00.117-.155l.002-.003C31.215 15.373 32 13.116 32 10.751c0-5.192-3.738-9.417-8.333-9.417zm5.009 15.039a.65.65 0 00-.049.065l-.001.002c-.063.072-.131.135-.199.199L15.999 29.057 4.291 17.373a.672.672 0 00-.154-.198l-.001-.001c-1.782-1.556-2.803-3.898-2.803-6.425 0-4.457 3.14-8.083 7-8.083 3.816 0 7.074 4.978 7.106 5.028.246.38.875.38 1.121 0 .033-.05 3.29-5.028 7.106-5.028 3.86 0 7 3.626 7 8.083 0 2.1-.707 4.097-1.99 5.622z"/></symbol><symbol id="icon-internet" viewBox="0 0 32 32"><path d="M27.966 26.605A15.931 15.931 0 0032 16c0-4.23-1.653-8.079-4.343-10.943v-.001c-.002-.003-.006-.004-.007-.007A15.95 15.95 0 0016.555.014l-.001-.001-.312-.008c-.081-.003-.161-.006-.242-.006s-.162.003-.242.006l-.311.008-.001.001A15.955 15.955 0 004.351 5.049c-.002.003-.006.004-.007.007l-.001.001A15.93 15.93 0 00-.001 15.999a15.93 15.93 0 004.034 10.605c.003.005.003.01.007.015.01.014.024.02.035.033a15.962 15.962 0 0011.37 5.332l.001.001.311.008c.081.002.162.005.243.005s.162-.003.242-.006l.311-.008.001-.001a15.964 15.964 0 0011.379-5.343c.007-.009.019-.012.025-.022.004-.004.004-.01.008-.015zM1.117 16.552h6.622a20.35 20.35 0 001.38 6.879l-.048-.139a20.35 20.35 0 00-4.545 2.324l.07-.045a14.745 14.745 0 01-3.479-8.993l-.001-.027zm3.781-10.47A19.95 19.95 0 009.115 8.18l.142.044c-.899 2.131-1.45 4.605-1.517 7.199l-.001.026H1.117a14.79 14.79 0 013.793-9.38l-.012.013zm25.985 9.366h-6.622a20.318 20.318 0 00-1.567-7.359l.05.134a20.252 20.252 0 004.435-2.189l-.076.047a14.761 14.761 0 013.78 9.34l.001.027zM15.448 8.255a19.36 19.36 0 01-4.81-.741l.136.034a19.447 19.447 0 014.651-6.069l.023-.019v6.797zm0 1.104v6.089H8.843a19.22 19.22 0 011.518-7.009l-.048.126c1.527.458 3.287.745 5.107.793l.027.001zm1.104 0a20.378 20.378 0 005.135-.793c.868 2.029 1.402 4.384 1.47 6.856l.001.027h-6.606V9.36zm0-1.104V1.458a19.406 19.406 0 014.623 5.977l.05.112c-1.389.405-2.992.66-4.646.707l-.027.001zm5.743-1.043a20.511 20.511 0 00-4.343-5.97l-.009-.008a14.853 14.853 0 018.381 4.042l-.004-.004a18.795 18.795 0 01-3.891 1.899l-.134.041zm-12.59 0a19.095 19.095 0 01-4.1-1.986l.076.046a14.798 14.798 0 018.3-4.029l.077-.008a20.436 20.436 0 00-4.299 5.857l-.053.121zm-.862 9.34h6.605v5.538c-1.918.05-3.745.357-5.474.888l.144-.038c-.748-1.889-1.21-4.076-1.274-6.362l-.001-.027zm6.605 6.641v7.348a19.384 19.384 0 01-4.852-6.456l-.05-.119c1.457-.445 3.137-.724 4.875-.772l.027-.001zm1.104 7.348v-7.348c1.677.047 3.32.307 4.902.772-1.195 2.593-2.85 4.784-4.879 6.556l-.023.019zm0-8.451v-5.538h6.605a19.232 19.232 0 01-1.321 6.52l.045-.131c-1.585-.494-3.412-.801-5.303-.85l-.026-.001zm7.708-5.538h6.622a14.776 14.776 0 01-3.498 9.041l.018-.022a19.976 19.976 0 00-4.334-2.233l-.141-.046c.785-1.994 1.268-4.302 1.332-6.713l.001-.027zM5.347 26.398a18.898 18.898 0 014.014-2.043l.133-.043c1.14 2.517 2.677 4.659 4.555 6.446l.008.008a14.864 14.864 0 01-8.711-4.368zm12.596 4.368a20.41 20.41 0 004.511-6.327l.052-.127a19.207 19.207 0 014.216 2.13l-.069-.044a14.864 14.864 0 01-8.711 4.368z"/></symbol><symbol id="icon-phone-call" viewBox="0 0 32 32"><path d="M31.978 26.338a2.457 2.457 0 00-1.218-1.819l-7.895-4.545a2.476 2.476 0 00-2.983.395l-1.555 1.555a1.14 1.14 0 01-1.522.085c-1.226-.986-2.433-2.072-3.587-3.227s-2.24-2.361-3.227-3.587a1.14 1.14 0 01.085-1.522l1.555-1.555a2.479 2.479 0 00.395-2.983L7.481 1.24C7.094.568 6.431.124 5.662.022S4.137.177 3.589.725L1.246 3.068c-1.635 1.635-1.662 4.627-.074 8.423 1.527 3.65 4.375 7.669 8.022 11.315s7.665 6.495 11.315 8.022c1.869.781 3.542 1.172 4.955 1.172 1.457 0 2.638-.416 3.468-1.246l2.343-2.343a2.455 2.455 0 00.703-2.073zm-9.629-5.466l7.895 4.545c.39.225.648.61.707 1.056.05.375-.048.744-.268 1.041l-10.492-5.988.426-.426a1.44 1.44 0 011.732-.229zM5.526 1.05c.447.059.832.317 1.056.707l4.545 7.895a1.439 1.439 0 01-.229 1.732l-.391.391L4.486 1.318a1.419 1.419 0 011.039-.268zm22.673 28.971c-1.299 1.299-3.956 1.245-7.29-.149-3.529-1.476-7.429-4.245-10.982-7.798s-6.323-7.453-7.798-10.982C.735 7.758.68 5.101 1.98 3.802l1.739-1.739 6.03 10.473-.404.404a2.175 2.175 0 00-.16 2.906c1.01 1.255 2.12 2.49 3.301 3.67s2.416 2.291 3.671 3.301a2.175 2.175 0 002.906-.16l.369-.369 10.506 5.996-1.738 1.738z"/></symbol><symbol id="icon-settings" viewBox="0 0 32 32"><path d="M30.362 12.641l-2.246-.381a12.74 12.74 0 00-.902-2.179l1.324-1.852a1.97 1.97 0 00-.214-2.547L26.332 3.69a1.963 1.963 0 00-2.54-.214L21.934 4.8a12.555 12.555 0 00-2.259-.929l-.374-2.219A1.974 1.974 0 0017.349.001h-2.814c-.969 0-1.791.695-1.952 1.651l-.388 2.273c-.749.234-1.477.541-2.173.916L8.184 3.517a1.96 1.96 0 00-1.15-.368c-.528 0-1.029.207-1.397.582L3.638 5.723a1.98 1.98 0 00-.214 2.547l1.337 1.878a12.356 12.356 0 00-.889 2.186l-2.219.374A1.974 1.974 0 00.002 14.66v2.814c0 .969.695 1.791 1.651 1.952l2.273.388c.234.749.541 1.477.916 2.173l-1.317 1.832a1.97 1.97 0 00.214 2.547l1.992 1.992a1.963 1.963 0 002.54.214l1.878-1.337a12.66 12.66 0 002.112.869l.374 2.246c.16.956.983 1.651 1.952 1.651h2.821c.969 0 1.791-.695 1.952-1.651l.381-2.246a12.74 12.74 0 002.179-.902l1.852 1.324a1.96 1.96 0 001.15.368 1.96 1.96 0 001.397-.582l1.992-1.992a1.98 1.98 0 00.214-2.547l-1.324-1.858c.368-.702.675-1.431.902-2.179l2.246-.374A1.974 1.974 0 0032 17.41v-2.814a1.952 1.952 0 00-1.638-1.952zm-.154 4.766c0 .087-.06.16-.147.174l-2.808.468a.898.898 0 00-.722.662 10.714 10.714 0 01-1.163 2.801.906.906 0 00.04.983l1.651 2.326a.182.182 0 01-.02.227l-1.992 1.992a.169.169 0 01-.127.053.162.162 0 01-.1-.033l-2.32-1.651a.903.903 0 00-.983-.04c-.876.521-1.818.909-2.801 1.163a.887.887 0 00-.662.722l-.475 2.808a.173.173 0 01-.174.147h-2.814a.174.174 0 01-.174-.147l-.468-2.808a.898.898 0 00-.662-.722 11.097 11.097 0 01-2.741-1.123.927.927 0 00-.455-.12.874.874 0 00-.521.167l-2.34 1.665a.198.198 0 01-.1.033.182.182 0 01-.127-.053l-1.992-1.992a.18.18 0 01-.02-.227l1.644-2.306a.914.914 0 00.04-.989 10.586 10.586 0 01-1.176-2.794.915.915 0 00-.722-.662l-2.828-.481a.173.173 0 01-.147-.174v-2.814c0-.087.06-.16.147-.174l2.788-.468a.905.905 0 00.729-.668c.247-.983.628-1.932 1.143-2.808a.892.892 0 00-.047-.976l-1.665-2.34a.182.182 0 01.02-.227l1.992-1.992a.169.169 0 01.127-.053c.04 0 .074.013.1.033l2.306 1.644a.914.914 0 00.989.04 10.586 10.586 0 012.794-1.176.915.915 0 00.662-.722l.481-2.828a.173.173 0 01.174-.147h2.814c.087 0 .16.06.174.147l.468 2.788c.06.354.321.642.668.729 1.009.254 1.972.648 2.868 1.176a.904.904 0 00.983-.04l2.306-1.658a.198.198 0 01.1-.033c.027 0 .08.007.127.053l1.992 1.992a.18.18 0 01.02.227l-1.651 2.32a.903.903 0 00-.04.983c.521.876.909 1.818 1.163 2.801a.887.887 0 00.722.662l2.808.475a.173.173 0 01.147.174v2.814h-.007z"/><path d="M16.003 9.091c-3.81 0-6.905 3.095-6.905 6.905s3.095 6.905 6.905 6.905 6.905-3.095 6.905-6.905-3.095-6.905-6.905-6.905zm0 12.006c-2.814 0-5.1-2.286-5.1-5.1s2.286-5.1 5.1-5.1 5.1 2.286 5.1 5.1-2.286 5.1-5.1 5.1z"/></symbol><symbol id="icon-shopping-card" viewBox="0 0 32 32"><path d="M9.606 21.07h17.632a3.637 3.637 0 003.63-3.63V9.943c0-.013 0-.026-.007-.039 0-.013-.007-.033-.007-.046s-.007-.026-.007-.039c-.007-.013-.007-.026-.013-.046-.007-.013-.007-.026-.013-.039s-.007-.026-.013-.039a.298.298 0 01-.02-.046c-.007-.013-.013-.026-.02-.033l-.02-.039-.02-.033c-.007-.013-.02-.026-.026-.039a.125.125 0 00-.026-.033c-.007-.013-.02-.02-.026-.033s-.02-.02-.026-.033-.02-.02-.026-.026l-.033-.033c-.013-.007-.02-.02-.033-.026s-.026-.02-.039-.026l-.033-.02c-.013-.007-.026-.013-.039-.026l-.118-.059c-.013-.007-.026-.007-.039-.013s-.033-.013-.046-.013-.026-.007-.033-.007c-.02-.007-.033-.007-.053-.007-.007 0-.013-.007-.026-.007L7.758 6.059V2.942c0-.033 0-.066-.007-.092 0-.007 0-.013-.007-.026 0-.02-.007-.039-.007-.059-.007-.02-.007-.033-.013-.053 0-.013-.007-.02-.007-.033l-.02-.059c0-.007-.007-.02-.007-.026a.216.216 0 00-.026-.053c-.007-.007-.007-.02-.013-.026-.007-.013-.013-.026-.026-.039l-.02-.033-.02-.033c-.007-.013-.02-.026-.026-.039l-.079-.079a.267.267 0 00-.046-.039c-.007-.007-.02-.013-.026-.02-.013-.013-.026-.02-.039-.033-.02-.013-.039-.026-.053-.033-.007-.007-.013-.007-.02-.013l-.085-.039L2.364.076C1.91-.115 1.391.096 1.2.55s.02.973.474 1.164l4.301 1.815v19.454a3.634 3.634 0 003.163 3.597 3.59 3.59 0 00-.513 1.841c0 1.98 1.611 3.584 3.584 3.584s3.584-1.611 3.584-3.584c0-.658-.178-1.282-.493-1.809h7.984a3.532 3.532 0 00-.493 1.809c0 1.98 1.611 3.584 3.584 3.584s3.584-1.611 3.584-3.584-1.611-3.584-3.584-3.584H9.605a1.857 1.857 0 01-1.855-1.855v-2.407c.539.316 1.177.5 1.855.5zm4.42 7.339c0 1-.816 1.809-1.809 1.809s-1.809-.816-1.809-1.809.816-1.809 1.809-1.809 1.809.809 1.809 1.809zm14.166 0c0 1-.816 1.809-1.809 1.809s-1.809-.816-1.809-1.809.816-1.809 1.809-1.809 1.809.809 1.809 1.809zm-.954-9.115H9.606a1.857 1.857 0 01-1.855-1.855V7.844l21.341 2.94v6.649a1.858 1.858 0 01-1.855 1.861z"/></symbol><symbol id="icon-shuffle" viewBox="0 0 32 32"><path d="M12.699 21.178l.979-1.58a.797.797 0 00-.261-1.103.799.799 0 00-1.103.261l-.979 1.58c-1.776 2.866-4.309 4.512-6.96 4.512H.797c-.444 0-.797.359-.797.803s.359.803.797.803h3.585c3.219-.013 6.249-1.933 8.318-5.276zM31.758 5.795L27.88 1.91c-.313-.313-.816-.313-1.13 0s-.313.816 0 1.13l2.52 2.52h-3.715c-3.212 0-6.249 1.92-8.318 5.263l-.601.973a.797.797 0 00.679 1.221.8.8 0 00.679-.379l.601-.973c1.776-2.866 4.309-4.505 6.96-4.505h3.709l-2.52 2.52a.797.797 0 000 1.13c.157.157.359.235.568.235s.411-.078.568-.235l3.885-3.885a.802.802 0 00-.007-1.13zm-1.704.574v-.026l.013.013-.013.013z"/><path d="M26.744 30.09c.157.157.359.235.568.235s.411-.078.568-.235l3.885-3.885a.797.797 0 000-1.13l-3.885-3.878c-.313-.313-.816-.313-1.13 0s-.313.816 0 1.13l2.52 2.52h-3.598c-2.644 0-5.184-1.645-6.96-4.512l-5.889-9.513c-2.07-3.35-5.106-5.263-8.318-5.263H.796c-.444 0-.797.359-.797.803s.359.803.797.803h3.702c2.644 0 5.184 1.645 6.96 4.505l5.889 9.513c2.07 3.35 5.106 5.269 8.318 5.269h3.598l-2.52 2.52a.791.791 0 000 1.116zm3.31-4.459l.013.013-.013.013v-.026z"/></symbol><symbol id="icon-strongbox" viewBox="0 0 32 32"><path d="M30.912 0H8.93a.563.563 0 100 1.126h21.418V28.73H2.744v-4.733h1.394v2.776c0 .311.252.563.563.563h3.246a.563.563 0 100-1.126H5.264v-2.212h.486a.563.563 0 00.563-.563v-5.671a.563.563 0 00-.563-.563h-.486v-4.544h.486a.563.563 0 00.563-.563V6.423a.563.563 0 00-.563-.563h-.486V3.648h22.563v3.044a.563.563 0 101.126 0V3.085a.563.563 0 00-.563-.563H4.7a.563.563 0 00-.563.563v2.776H2.744V1.128h4.222a.563.563 0 100-1.126H2.181a.563.563 0 00-.563.563v5.296h-.529a.563.563 0 00-.563.563v5.671c0 .311.252.563.563.563h.529v4.544h-.529a.563.563 0 00-.563.563v5.671c0 .311.252.563.563.563h.529v5.296c0 .311.252.563.563.563h2.272v1.579c0 .311.252.563.563.563h5.923a.563.563 0 00.563-.563v-1.579H21.59v1.579c0 .311.252.563.563.563h5.923a.563.563 0 00.563-.563v-1.579h2.272a.563.563 0 00.563-.563V.564a.563.563 0 00-.564-.563zM1.652 11.53V6.986h3.536v4.544H1.652zm2.486 1.127v4.544H2.744v-4.544h1.394zM1.652 22.871v-4.544h3.536v4.544H1.652zm3.927 8.002v-1.016h4.796v1.016H5.579zm21.934 0h-4.796v-1.016h4.796v1.016z"/><path d="M28.391 8.091a.563.563 0 00-.563.563V26.21H9.912a.563.563 0 100 1.126h18.48a.563.563 0 00.563-.563V8.654a.563.563 0 00-.563-.563z"/><path d="M16.788 8.75c-3.404 0-6.174 2.77-6.174 6.174s2.77 6.174 6.174 6.174c3.404 0 6.174-2.77 6.174-6.174s-2.77-6.174-6.174-6.174zm5.014 5.61h-2.111a2.936 2.936 0 00-.459-1.101l.006.01 1.491-1.491c.58.725.964 1.612 1.072 2.582zm-4.451-4.451c.97.108 1.857.493 2.582 1.072l-1.491 1.491a2.897 2.897 0 00-1.072-.449l-.019-.003V9.909zm-1.126 0v2.111c-.414.082-.78.239-1.101.459l.01-.007-1.491-1.491a5.016 5.016 0 012.582-1.072zm-3.379 1.869l1.491 1.491a2.897 2.897 0 00-.449 1.072l-.003.019h-2.111a5.024 5.024 0 011.072-2.582zm-1.072 3.709h2.111c.082.414.239.78.459 1.101l-.007-.01-1.491 1.491a5.016 5.016 0 01-1.072-2.582zm4.451 4.451a5.024 5.024 0 01-2.582-1.072l1.491-1.491c.311.213.677.371 1.072.449l.019.003v2.111zm-1.268-5.014c0-1.01.821-1.831 1.831-1.831s1.831.822 1.831 1.831-.822 1.831-1.831 1.831-1.831-.821-1.831-1.831zm2.394 5.014v-2.111c.414-.082.78-.239 1.101-.459l-.01.006 1.491 1.491a5.016 5.016 0 01-2.582 1.072zm3.379-1.869l-1.491-1.491c.213-.311.371-.677.449-1.072l.003-.019h2.111a5.024 5.024 0 01-1.072 2.582z"/></symbol><symbol id="icon-time" viewBox="0 0 32 32"><path d="M16 0C7.178 0 0 7.178 0 16s7.178 16 16 16 16-7.178 16-16S24.822 0 16 0zm0 30.933C7.766 30.933 1.067 24.234 1.067 16S7.766 1.067 16 1.067 30.933 7.766 30.933 16 24.234 30.933 16 30.933z"/><path d="M16 3.2a.533.533 0 00-.533.533V16h-8a.533.533 0 100 1.066H16a.533.533 0 00.533-.533v-12.8A.533.533 0 0016 3.2z"/></symbol></defs></svg>